<svg xmlns="http://www.w3.org/2000/svg" viewBox="0 0 24 24">
    <path d="M12.04 2.5A9.42 9.42 0 0 0 3.9 16.65L2.5 21.5l5.02-1.32a9.4 9.4 0 0 0 4.52 1.15h.01a9.42 9.42 0 0 0 0-18.83Zm0 17.24h-.01a7.8 7.8 0 0 1-3.98-1.09l-.29-.17-2.98.78.8-2.9-.19-.3a7.84 7.84 0 1 1 6.65 3.68Zm4.3-5.87c-.24-.12-1.4-.69-1.62-.77-.22-.08-.38-.12-.54.12-.16.24-.62.77-.76.93-.14.16-.28.18-.52.06-.24-.12-1-.37-1.91-1.18a7.2 7.2 0 0 1-1.32-1.64c-.14-.24-.02-.37.1-.49.11-.11.24-.28.36-.42.12-.14.16-.24.24-.4.08-.16.04-.3-.02-.42-.06-.12-.54-1.3-.74-1.78-.19-.46-.39-.4-.54-.41h-.46c-.16 0-.42.06-.64.3-.22.24-.84.82-.84 2s.86 2.32.98 2.48c.12.16 1.7 2.59 4.11 3.63.57.25 1.02.4 1.37.51.58.18 1.1.16 1.52.1.46-.07 1.4-.57 1.6-1.12.2-.55.2-1.02.14-1.12-.06-.1-.22-.16-.46-.28Z"/>
</svg>
